<svg viewBox="0 0 64 64" xmlns="http://www.w3.org/2000/svg"><path d="m31.8 2c-13 0-24.1 8.4-28.2 20h56.6c-4.2-11.6-15.3-20-28.4-20z" fill="#f2b200"/><path d="m31.8 62c13.1 0 24.2-8.3 28.3-20h-56.5c4.1 11.7 15.2 20 28.2 20z" fill="#83bf4f"/><path d="m3.6 22c-1.1 3.1-1.7 6.5-1.7 10s.6 6.9 1.7 10h56.6c1.1-3.1 1.7-6.5 1.7-10s-.6-6.9-1.7-10z" fill="#fff"/><circle cx="31.8" cy="32" fill="#428bc1" r="8"/><circle cx="31.8" cy="32" fill="#fff" r="7"/><g fill="#428bc1"><circle cx="29.2" cy="25.5" r=".5"/><circle cx="27.6" cy="26.4" r=".5"/><circle cx="26.3" cy="27.7" r=".5"/><circle cx="25.4" cy="29.3" r=".5"/><circle cx="24.9" cy="31.1" r=".5"/><circle cx="24.9" cy="32.9" r=".5"/><circle cx="25.4" cy="34.7" r=".5"/><circle cx="26.3" cy="36.3" r=".5"/><circle cx="27.6" cy="37.6" r=".5"/><circle cx="29.2" cy="38.5" r=".5"/><circle cx="30.9" cy="38.9" r=".5"/><path d="m32.3 39c0-.3.2-.5.4-.6.3 0 .5.2.6.4 0 .3-.2.5-.4.6-.4.1-.6-.1-.6-.4"/><circle cx="34.5" cy="38.5" r=".5"/><circle cx="36.1" cy="37.6" r=".5"/><circle cx="37.4" cy="36.3" r=".5"/><circle cx="38.3" cy="34.7" r=".5"/><circle cx="38.8" cy="32.9" r=".5"/><path d="m38.8 31.6c-.3 0-.5-.2-.6-.4 0-.3.2-.5.4-.6.3 0 .5.2.6.4.1.3-.1.5-.4.6"/><circle cx="38.3" cy="29.3" r=".5"/><circle cx="37.4" cy="27.7" r=".5"/><circle cx="36.1" cy="26.4" r=".5"/><path d="m35 25.7c-.1.3-.4.4-.7.3s-.4-.4-.3-.7.4-.4.7-.3c.3.2.4.5.3.7m-1.8-.6c0 .3-.3.5-.6.4-.3 0-.5-.3-.4-.6 0-.3.3-.5.6-.4s.5.4.4.6m-1.8-.1c0 .3-.2.5-.4.6-.3 0-.5-.2-.6-.4 0-.3.2-.5.4-.6.3-.1.6.1.6.4"/><circle cx="31.8" cy="32" r="1.5"/><path d="m31.8 25-.2 4.3.2 2.7.3-2.7zm-1.8.2.9 4.3.9 2.5-.4-2.7z"/><path d="m28.3 25.9 2 3.9 1.5 2.2-1.1-2.5zm-1.4 1.1 2.9 3.3 2 1.7-1.7-2.1z"/><path d="m25.8 28.5 3.6 2.4 2.4 1.1-2.2-1.6z"/><path d="m25.1 30.2 4.1 1.3 2.6.5-2.5-.9zm-.3 1.8 4.4.2 2.6-.2-2.6-.2z"/><path d="m25.1 33.8 4.2-.9 2.5-.9-2.6.5zm.7 1.7 3.8-1.9 2.2-1.6-2.4 1.1z"/><path d="m26.9 36.9 3.2-2.8 1.7-2.1-2 1.7zm1.4 1.2 2.4-3.7 1.1-2.4-1.5 2.2z"/><path d="m30 38.8 1.4-4.1.4-2.7-.9 2.5zm1.8.2.3-4.3-.3-2.7-.2 2.7zm1.8-.2-.8-4.3-1-2.5.5 2.7z"/><path d="m35.3 38.1-1.9-3.9-1.6-2.2 1.2 2.5zm1.5-1.2-2.9-3.2-2.1-1.7 1.8 2.1z"/><path d="m37.9 35.5-3.6-2.4-2.5-1.1 2.2 1.6zm.7-1.7-4.1-1.3-2.7-.5 2.6.9zm.2-1.8-4.3-.3-2.7.3 2.7.2zm-.2-1.8-4.2.9-2.6.9 2.7-.5z"/><path d="m37.9 28.5-3.9 1.9-2.2 1.6 2.5-1.1zm-1.1-1.4-3.2 2.8-1.8 2.1 2.1-1.7z"/><path d="m35.3 25.9-2.3 3.7-1.2 2.4 1.6-2.2z"/><path d="m33.7 25.2-1.4 4.1-.5 2.7 1-2.5z"/></g></svg>